<svg xmlns="http://www.w3.org/2000/svg" width="920" height="310" viewBox="0 0 920 310" font-family="Helvetica, Arial, sans-serif">
<defs><marker id="m" viewBox="0 0 10 10" refX="9" refY="5" markerWidth="6" markerHeight="6" orient="auto-start-reverse"><path d="M 0 0 L 10 5 L 0 10 z" fill="#6b7280"/></marker><marker id="a" viewBox="0 0 10 10" refX="9" refY="5" markerWidth="6" markerHeight="6" orient="auto-start-reverse"><path d="M 0 0 L 10 5 L 0 10 z" fill="#b45309"/></marker></defs>
<rect x="20" y="40" width="110" height="40" rx="7" fill="#f3f4f6" stroke="#6b7280" stroke-width="1.5"/>
<text x="75.0" y="65" font-size="13" fill="#111827" text-anchor="middle">query</text>
<line x1="130" y1="60" x2="168" y2="60" stroke="#6b7280" stroke-width="1.8" marker-end="url(#m)"/>
<rect x="170" y="30" width="150" height="60" rx="7" fill="#fffbeb" stroke="#b45309" stroke-width="1.5"/>
<text x="245.0" y="65" font-size="13" fill="#b45309" text-anchor="middle">retrieve at all?</text>
<line x1="320" y1="60" x2="358" y2="60" stroke="#6b7280" stroke-width="1.8" marker-end="url(#m)"/>
<text x="339.0" y="52.0" font-size="11" fill="#6b7280" text-anchor="middle">yes</text>
<rect x="360" y="40" width="130" height="40" rx="7" fill="#f3f4f6" stroke="#6b7280" stroke-width="1.5"/>
<text x="425.0" y="65" font-size="13" fill="#111827" text-anchor="middle">retrieve docs</text>
<line x1="490" y1="60" x2="528" y2="60" stroke="#6b7280" stroke-width="1.8" marker-end="url(#m)"/>
<rect x="530" y="30" width="140" height="60" rx="7" fill="#fffbeb" stroke="#b45309" stroke-width="1.5"/>
<text x="600.0" y="56" font-size="13" fill="#b45309" text-anchor="middle">is this doc</text>
<text x="600.0" y="74" font-size="13" fill="#b45309" text-anchor="middle">relevant?</text>
<line x1="670" y1="60" x2="708" y2="60" stroke="#6b7280" stroke-width="1.8" marker-end="url(#m)"/>
<text x="689.0" y="52.0" font-size="11" fill="#6b7280" text-anchor="middle">yes</text>
<rect x="710" y="40" width="120" height="40" rx="7" fill="#f3f4f6" stroke="#6b7280" stroke-width="1.5"/>
<text x="770.0" y="65" font-size="13" fill="#111827" text-anchor="middle">generate</text>
<line x1="770" y1="80" x2="770" y2="118" stroke="#6b7280" stroke-width="1.8" marker-end="url(#m)"/>
<rect x="700" y="120" width="150" height="60" rx="7" fill="#fffbeb" stroke="#b45309" stroke-width="1.5"/>
<text x="775.0" y="146" font-size="13" fill="#b45309" text-anchor="middle">is my answer</text>
<text x="775.0" y="164" font-size="13" fill="#b45309" text-anchor="middle">supported?</text>
<line x1="700" y1="150" x2="612" y2="150" stroke="#6b7280" stroke-width="1.8" marker-end="url(#m)"/>
<text x="656.0" y="142.0" font-size="11" fill="#6b7280" text-anchor="middle">yes</text>
<rect x="430" y="130" width="180" height="40" rx="7" fill="#ffffff" stroke="#111827" stroke-width="1.5"/>
<text x="520.0" y="155" font-size="13" fill="#111827" text-anchor="middle">return the answer</text>
<line x1="245" y1="90" x2="245" y2="128" stroke="#6b7280" stroke-width="1.8" marker-end="url(#m)"/>
<text x="245.0" y="101.0" font-size="11" fill="#6b7280" text-anchor="middle">no</text>
<rect x="170" y="130" width="160" height="46" rx="7" fill="#f3f4f6" stroke="#6b7280" stroke-width="1.5"/>
<text x="250.0" y="150" font-size="13" fill="#111827" text-anchor="middle">answer without</text>
<text x="250.0" y="166" font-size="13" fill="#111827" text-anchor="middle">retrieval</text>
<line x1="640" y1="90" x2="640" y2="218" stroke="#6b7280" stroke-width="1.8" marker-end="url(#m)"/>
<text x="640.0" y="205" font-size="11" fill="#6b7280" text-anchor="middle">no: skip it</text>
<rect x="540" y="220" width="170" height="40" rx="7" fill="#f3f4f6" stroke="#6b7280" stroke-width="1.5"/>
<text x="625.0" y="245" font-size="13" fill="#111827" text-anchor="middle">try the next doc</text>
<path d="M 540 240 C 420 240, 420 70, 358 62" fill="none" stroke="#b45309" stroke-width="1.6" stroke-dasharray="5,3" marker-end="url(#a)"/>
<line x1="790" y1="180" x2="790" y2="218" stroke="#6b7280" stroke-width="1.8" marker-end="url(#m)"/>
<text x="790.0" y="191.0" font-size="11" fill="#6b7280" text-anchor="middle">no</text>
<path d="M 790 220 C 790 250, 720 258, 712 244" fill="none" stroke="#6b7280" stroke-width="1.6" marker-end="url(#m)"/>
<text x="20" y="295" font-size="13" fill="#374151">Every amber decision is a reflection token the model was trained to emit about its own retrieval and output.</text></svg>
